<?xml version="1.0" encoding="UTF-8"?>
<svg version="1.1" xmlns="http://www.w3.org/2000/svg" width="196" height="204">
<path d="M0 0 C0.77994827 -0.00979385 1.55989655 -0.01958771 2.36347961 -0.02967834 C33.07952613 -0.33542518 71.74836223 -0.28247469 96.015625 21.52734375 C100.88194492 26.99259536 99.86152527 33.32060445 99.5390625 40.23828125 C99.16662225 44.40330988 98.61199708 48.52690418 98.0078125 52.6640625 C97.77475403 54.33446846 97.77475403 54.33446846 97.5369873 56.03862 C97.04599911 59.5439065 96.54276763 63.04730202 96.0390625 66.55078125 C95.70100622 68.9484527 95.3637595 71.34623844 95.02734375 73.74414062 C94.20725535 79.57687266 93.37714819 85.40810945 92.5390625 91.23828125 C93.3110498 91.53105957 94.08303711 91.82383789 94.87841797 92.12548828 C97.92655091 93.40034513 100.10035993 95.03566296 102.6640625 97.11328125 C103.51226562 97.79132813 104.36046875 98.469375 105.234375 99.16796875 C110.18769559 103.61756183 110.18769559 103.61756183 110.97265625 107.23828125 C110.97977318 110.88215052 110.96137277 112.67034675 108.7265625 115.67578125 C105.55689643 117.93982844 103.02101871 118.37638818 99.2265625 118.36328125 C98.11861328 118.36714844 98.11861328 118.36714844 96.98828125 118.37109375 C94.12065704 118.2155926 91.36255393 117.75164333 88.5390625 117.23828125 C88.47436768 117.81231689 88.40967285 118.38635254 88.34301758 118.9777832 C87.45974315 126.73770916 86.51451702 134.48944078 85.5390625 142.23828125 C85.44713623 142.97139526 85.35520996 143.70450928 85.26049805 144.45983887 C84.66722211 149.17030989 84.052586 153.87739097 83.41537476 158.5821228 C83.20710279 160.13756988 83.00427156 161.69375568 82.80703735 163.25064087 C82.5256856 165.46106734 82.22419451 167.66789989 81.91796875 169.875 C81.7485376 171.15076904 81.57910645 172.42653809 81.40454102 173.7409668 C80.13216438 178.88251694 78.03833022 182.20048445 73.68359375 185.21484375 C54.3169964 194.79597398 33.25905231 196.64537743 11.9140625 196.55078125 C11.08067352 196.54929077 10.24728455 196.54780029 9.38864136 196.54626465 C-3.4251649 196.50511947 -15.89706852 195.96147006 -28.4609375 193.23828125 C-29.16138184 193.09374512 -29.86182617 192.94920898 -30.58349609 192.80029297 C-41.02351443 190.58366081 -52.23002988 187.49930379 -58.4609375 178.23828125 C-59.14590288 175.47701457 -59.61445286 172.96279421 -59.9609375 170.16015625 C-60.07815659 169.32133911 -60.19537567 168.48252197 -60.31614685 167.61828613 C-60.71358471 164.74354194 -61.08724628 161.86620219 -61.4609375 158.98828125 C-61.74224795 156.90834928 -62.0249344 154.82860305 -62.30883789 152.74902344 C-62.87975629 148.5487727 -63.4441724 144.34773993 -64.00172901 140.14569473 C-65.22119473 130.96099464 -66.48594601 121.78282719 -67.75717163 112.60516357 C-68.8679906 104.58482781 -69.96816664 96.56303714 -71.06762695 88.5411377 C-71.61941051 84.51623591 -72.17433149 80.49178487 -72.73168945 76.46765137 C-73.39941425 71.6423622 -74.05803912 66.81590708 -74.71034431 61.98851013 C-74.95440957 60.19285437 -75.20144045 58.39759872 -75.45171928 56.60279846 C-79.0373442 30.85087994 -79.0373442 30.85087994 -75.9609375 23.80078125 C-57.76705884 5.15205563 -25.09477857 0.26379025 0 0 Z M-67.4609375 28.23828125 C-68.24972802 30.83823854 -68.24972802 30.83823854 -68.4609375 33.23828125 C-54.42463859 45.57835069 -33.46546559 48.33144717 -15.4609375 50.23828125 C-14.50058594 50.35042969 -13.54023437 50.46257813 -12.55078125 50.578125 C18.22267277 53.60162721 61.24434555 53.85324908 88 35.765625 C89.80320465 33.97615033 90.16563606 32.71889976 90.5390625 30.23828125 C73.65334718 12.51352418 42.14734912 9.6757008 18.828125 9.0234375 C-6.6432515 8.5624556 -47.64518913 8.65787431 -67.4609375 28.23828125 Z M-66.4609375 47.23828125 C-63.96772073 70.31376777 -60.86938232 93.30988963 -57.7902832 116.31298828 C-57.03940775 121.92488645 -56.29622917 127.53777691 -55.55473232 133.15092087 C-54.97790747 137.50774044 -54.39581419 141.8638442 -53.81224251 146.21976471 C-53.5356261 148.29111449 -53.2609349 150.36272235 -52.98824883 152.4345932 C-52.60896669 155.31231353 -52.22227647 158.18894626 -51.83374023 161.06542969 C-51.72408432 161.9100325 -51.61442841 162.75463531 -51.50144958 163.62483215 C-50.90099837 168.00769407 -50.24485628 172.15177342 -48.4609375 176.23828125 C-24.6432461 191.81138717 16.51802616 190.32041416 43.38671875 185.15234375 C44.77262037 184.85589078 46.1568474 184.55147298 47.5390625 184.23828125 C48.2079248 184.08842773 48.87678711 183.93857422 49.56591797 183.78417969 C60.99090139 181.35590554 60.99090139 181.35590554 70.5390625 175.23828125 C72.44176425 169.02654148 73.17557706 162.43505246 74.046875 156.015625 C74.17722137 155.07070694 74.30756775 154.12578888 74.44186401 153.15223694 C74.71429449 151.16840338 74.9847862 149.18430269 75.25341797 147.19995117 C75.66350877 144.17985918 76.08336092 141.16122992 76.50390625 138.14257812 C76.76882152 136.20450796 77.03316387 134.26635938 77.296875 132.328125 C77.42184357 131.43520248 77.54681213 130.54227997 77.67556763 129.62229919 C78.36736441 124.44148477 78.6595008 119.46522776 78.5390625 114.23828125 C77.19835693 113.74183105 77.19835693 113.74183105 75.83056641 113.23535156 C71.60359145 111.66572603 67.383095 110.07911568 63.1640625 108.48828125 C62.3969696 108.1998233 61.62987671 107.91136536 60.83953857 107.61416626 C49.29337876 103.25621206 38.08371762 98.52832244 27.11572266 92.84667969 C20.84432558 89.74515054 16.05881838 88.73316768 9.04833984 89.15356445 C6.5390625 89.23828125 6.5390625 89.23828125 3.5390625 88.23828125 C2.29635045 84.5101451 1.88455088 81.10516598 2.5390625 77.23828125 C4.6015625 74.23828125 4.6015625 74.23828125 7.5390625 72.23828125 C11.0390625 71.61328125 11.0390625 71.61328125 14.5390625 72.23828125 C17.18766699 74.35716484 19.07591746 76.00124071 20.27880859 79.21411133 C22.18137355 82.26993582 24.6176153 82.96201121 27.890625 84.375 C28.53376144 84.6561113 29.17689789 84.9372226 29.83952332 85.22685242 C31.94196448 86.1405146 34.05233023 87.03382697 36.1640625 87.92578125 C37.61305755 88.54791333 39.06186836 89.17047468 40.51049805 89.79345703 C60.02011315 99.54007083 60.02011315 99.54007083 80.5390625 104.23828125 C81.5439598 97.40756455 82.53991264 90.57558584 83.52978516 83.74267578 C83.86726508 81.42043855 84.20675881 79.09849301 84.54833984 76.77685547 C85.0401892 73.43141945 85.52468347 70.08498634 86.0078125 66.73828125 C86.16092896 65.70775635 86.31404541 64.67723145 86.47180176 63.61547852 C87.26157647 58.09046072 87.70184232 52.8193038 87.5390625 47.23828125 C86.3428125 47.65078125 85.1465625 48.06328125 83.9140625 48.48828125 C60.13560034 56.35260883 36.44719261 59.66360688 11.4765625 59.55078125 C10.63144104 59.54895844 9.78631958 59.54713562 8.91558838 59.54525757 C-15.18576251 59.45823578 -39.993938 57.5575318 -62.41430664 48.02319336 C-64.40683706 47.11892015 -64.40683706 47.11892015 -66.4609375 47.23828125 Z M90.5390625 101.23828125 C90.2090625 103.21828125 89.8790625 105.19828125 89.5390625 107.23828125 C93.36226807 108.66086937 96.45187555 109.47870401 100.5390625 109.23828125 C97.67369546 105.16064354 95.10864625 103.2115106 90.5390625 101.23828125 Z " fill="#6CAE3E" transform="translate(81.4609375,3.76171875)"/>
</svg>
